<svg width="36" height="38" viewBox="0 0 36 38" fill="none" xmlns="http://www.w3.org/2000/svg">
<path fill-rule="evenodd" clip-rule="evenodd" d="M35.6628 13.0666C34.7217 10.2529 33.3319 7.71028 31.5287 5.50804C29.7363 3.31948 27.5903 1.54644 25.1479 0.238436C24.8733 0.0925163 24.5442 0.144316 24.3185 0.376956L8.63062 16.3386L6.81914 18.182C6.72126 18.2691 6.63694 18.3854 6.58525 18.5266C6.57722 18.5473 6.56897 18.5751 6.56068 18.5997L2.34233 30.8096L0.541891 36.0262C0.438509 36.3213 0.498376 36.6525 0.688826 36.889C0.832785 37.0652 1.0342 37.1581 1.24077 37.1581C1.30885 37.1581 1.37957 37.1489 1.44761 37.125L6.27243 35.6008L17.6196 32.0137C17.6903 31.9921 17.7611 31.9568 17.8263 31.9107C17.8616 31.8831 17.897 31.853 17.9295 31.8228L19.7818 29.9376L35.4669 13.975C35.6926 13.7454 35.7689 13.3848 35.6628 13.0666ZM3.44118 32.273C3.47102 32.2949 3.50643 32.3079 3.53654 32.3254C3.85727 32.55 4.15653 32.7981 4.40398 33.1041C4.65147 33.4066 4.84735 33.7595 5.0187 34.1339C5.03784 34.1676 5.04582 34.2097 5.05942 34.2473L2.47834 35.0645L3.44118 32.273ZM17.0458 30.4585L6.53902 33.7799C6.50911 33.7077 6.45749 33.6535 6.42486 33.5828C6.18268 32.9958 5.89172 32.4435 5.51093 31.9767C5.12747 31.5111 4.65965 31.1411 4.15653 30.817C4.09395 30.7764 4.05586 30.7136 3.99328 30.6772L7.91527 19.3258L9.09019 18.1368L10.0394 19.2932L18.2151 29.2683L17.0458 30.4585ZM19.3221 28.1412L16.9477 25.2451L29.4182 12.5617C29.5786 12.3947 29.66 12.1695 29.66 11.9398C29.66 11.7426 29.5976 11.5399 29.4643 11.3803C29.1869 11.04 28.7109 11.0178 28.4062 11.3274L15.936 24.0117L15.4491 23.4144L13.5806 21.1302L26.0455 8.44732C26.2086 8.2792 26.2904 8.05512 26.2904 7.82484C26.2904 7.62768 26.2249 7.42552 26.0945 7.2648C25.8143 6.9262 25.3384 6.90516 25.0337 7.213L12.5661 19.8991L10.1971 17.0054L24.9495 1.9928C27.0301 3.18004 28.8714 4.737 30.4217 6.63788C31.9828 8.54024 33.2067 10.722 34.0771 13.1276L19.3221 28.1412Z" fill="url(#paint0_linear_0_147)"/>
<path fill-rule="evenodd" clip-rule="evenodd" d="M35.6628 13.0666C34.7217 10.2529 33.3319 7.71028 31.5287 5.50804C29.7363 3.31948 27.5903 1.54644 25.1479 0.238436C24.8733 0.0925163 24.5442 0.144316 24.3185 0.376956L8.63062 16.3386L6.81914 18.182C6.72126 18.2691 6.63694 18.3854 6.58525 18.5266C6.57722 18.5473 6.56897 18.5751 6.56068 18.5997L2.34233 30.8096L0.541891 36.0262C0.438509 36.3213 0.498376 36.6525 0.688826 36.889C0.832785 37.0652 1.0342 37.1581 1.24077 37.1581C1.30885 37.1581 1.37957 37.1489 1.44761 37.125L6.27243 35.6008L17.6196 32.0137C17.6903 31.9921 17.7611 31.9568 17.8263 31.9107C17.8616 31.8831 17.897 31.853 17.9295 31.8228L19.7818 29.9376L35.4669 13.975C35.6926 13.7454 35.7689 13.3848 35.6628 13.0666ZM3.44118 32.273C3.47102 32.2949 3.50643 32.3079 3.53654 32.3254C3.85727 32.55 4.15653 32.7981 4.40398 33.1041C4.65147 33.4066 4.84735 33.7595 5.0187 34.1339C5.03784 34.1676 5.04582 34.2097 5.05942 34.2473L2.47834 35.0645L3.44118 32.273ZM17.0458 30.4585L6.53902 33.7799C6.50911 33.7077 6.45749 33.6535 6.42486 33.5828C6.18268 32.9958 5.89172 32.4435 5.51093 31.9767C5.12747 31.5111 4.65965 31.1411 4.15653 30.817C4.09395 30.7764 4.05586 30.7136 3.99328 30.6772L7.91527 19.3258L9.09019 18.1368L10.0394 19.2932L18.2151 29.2683L17.0458 30.4585ZM19.3221 28.1412L16.9477 25.2451L29.4182 12.5617C29.5786 12.3947 29.66 12.1695 29.66 11.9398C29.66 11.7426 29.5976 11.5399 29.4643 11.3803C29.1869 11.04 28.7109 11.0178 28.4062 11.3274L15.936 24.0117L15.4491 23.4144L13.5806 21.1302L26.0455 8.44732C26.2086 8.2792 26.2904 8.05512 26.2904 7.82484C26.2904 7.62768 26.2249 7.42552 26.0945 7.2648C25.8143 6.9262 25.3384 6.90516 25.0337 7.213L12.5661 19.8991L10.1971 17.0054L24.9495 1.9928C27.0301 3.18004 28.8714 4.737 30.4217 6.63788C31.9828 8.54024 33.2067 10.722 34.0771 13.1276L19.3221 28.1412Z" fill="#FF3B4A"/>
<defs>
<linearGradient id="paint0_linear_0_147" x1="17.2623" y1="-17.4628" x2="-18.019" y2="17.7973" gradientUnits="userSpaceOnUse">
<stop stop-color="white"/>
<stop offset="1" stop-color="white"/>
</linearGradient>
</defs>
</svg>
