<svg width="40" height="34" viewBox="0 0 40 34" fill="none" xmlns="http://www.w3.org/2000/svg">
<path fill-rule="evenodd" clip-rule="evenodd" d="M39.7098 7.04363V17.4455C39.711 17.463 39.7189 17.4765 39.7267 17.4899C39.7351 17.5042 39.7434 17.5185 39.7434 17.5373C39.7434 17.5548 39.7353 17.5683 39.727 17.582C39.7191 17.5951 39.711 17.6084 39.7098 17.6258V27.9667C39.7098 28.3992 39.3888 28.747 38.9956 28.747H36.6124C36.2192 28.747 35.9009 28.3992 35.9009 27.9667C35.9009 27.5352 36.2192 27.1859 36.6124 27.1859H38.284V18.3161H31.8461C31.4528 18.3161 31.1345 17.9671 31.1345 17.5373V7.82209H25.4083V22.1412C25.4083 22.5704 25.09 22.9221 24.6967 22.9221C24.3033 22.9221 23.9825 22.5704 23.9825 22.1412V7.04363V2.55245H1.43154V27.1859H3.12908C3.52234 27.1859 3.84325 27.5352 3.84325 27.9667C3.84325 28.3992 3.52234 28.747 3.12908 28.747H0.719988C0.326562 28.747 0.0057373 28.3992 0.0057373 27.9667V1.77456C0.0057373 1.34421 0.326562 0.996094 0.719988 0.996094H24.6967C25.09 0.996094 25.4083 1.34421 25.4083 1.77456V6.26217H38.9956C39.3888 6.26217 39.7098 6.61325 39.7098 7.04363ZM32.5577 16.7558H38.284V7.82209H32.5577V16.7558ZM23.9488 27.9691C23.9488 24.6507 26.4173 21.9521 29.4525 21.9521C32.4826 21.9521 34.9486 24.6507 34.9486 27.9691C34.9486 31.2893 32.4826 33.9888 29.4525 33.9888C26.4173 33.9888 23.9488 31.2893 23.9488 27.9691ZM25.3745 27.9691C25.3745 30.4294 27.204 32.4292 29.4525 32.4292C31.696 32.4292 33.5228 30.4294 33.5228 27.9691C33.5228 25.5103 31.696 23.5114 29.4525 23.5114C27.204 23.5114 25.3745 25.5103 25.3745 27.9691ZM4.79534 27.9667C4.79534 24.648 7.26141 21.9482 10.2967 21.9482C13.3292 21.9482 15.7979 24.648 15.7979 27.9667C15.7979 31.2878 13.3292 33.9858 10.2967 33.9858C7.26141 33.9858 4.79534 31.2878 4.79534 27.9667ZM6.21869 27.9667C6.21869 30.4265 8.04801 32.4265 10.2967 32.4265C12.5426 32.4265 14.3722 30.4265 14.3722 27.9667C14.3722 25.5079 12.5426 23.5105 10.2967 23.5105C8.04801 23.5105 6.21869 25.5079 6.21869 27.9667ZM17.4616 27.1859H22.285C22.6782 27.1859 22.9965 27.5352 22.9965 27.9667C22.9965 28.3992 22.6782 28.747 22.285 28.747H17.4616C17.0683 28.747 16.7501 28.3992 16.7501 27.9667C16.7501 27.5352 17.0683 27.1859 17.4616 27.1859Z" fill="url(#paint0_linear_0_174)"/>
<path fill-rule="evenodd" clip-rule="evenodd" d="M39.7098 7.04363V17.4455C39.711 17.463 39.7189 17.4765 39.7267 17.4899C39.7351 17.5042 39.7434 17.5185 39.7434 17.5373C39.7434 17.5548 39.7353 17.5683 39.727 17.582C39.7191 17.5951 39.711 17.6084 39.7098 17.6258V27.9667C39.7098 28.3992 39.3888 28.747 38.9956 28.747H36.6124C36.2192 28.747 35.9009 28.3992 35.9009 27.9667C35.9009 27.5352 36.2192 27.1859 36.6124 27.1859H38.284V18.3161H31.8461C31.4528 18.3161 31.1345 17.9671 31.1345 17.5373V7.82209H25.4083V22.1412C25.4083 22.5704 25.09 22.9221 24.6967 22.9221C24.3033 22.9221 23.9825 22.5704 23.9825 22.1412V7.04363V2.55245H1.43154V27.1859H3.12908C3.52234 27.1859 3.84325 27.5352 3.84325 27.9667C3.84325 28.3992 3.52234 28.747 3.12908 28.747H0.719988C0.326562 28.747 0.0057373 28.3992 0.0057373 27.9667V1.77456C0.0057373 1.34421 0.326562 0.996094 0.719988 0.996094H24.6967C25.09 0.996094 25.4083 1.34421 25.4083 1.77456V6.26217H38.9956C39.3888 6.26217 39.7098 6.61325 39.7098 7.04363ZM32.5577 16.7558H38.284V7.82209H32.5577V16.7558ZM23.9488 27.9691C23.9488 24.6507 26.4173 21.9521 29.4525 21.9521C32.4826 21.9521 34.9486 24.6507 34.9486 27.9691C34.9486 31.2893 32.4826 33.9888 29.4525 33.9888C26.4173 33.9888 23.9488 31.2893 23.9488 27.9691ZM25.3745 27.9691C25.3745 30.4294 27.204 32.4292 29.4525 32.4292C31.696 32.4292 33.5228 30.4294 33.5228 27.9691C33.5228 25.5103 31.696 23.5114 29.4525 23.5114C27.204 23.5114 25.3745 25.5103 25.3745 27.9691ZM4.79534 27.9667C4.79534 24.648 7.26141 21.9482 10.2967 21.9482C13.3292 21.9482 15.7979 24.648 15.7979 27.9667C15.7979 31.2878 13.3292 33.9858 10.2967 33.9858C7.26141 33.9858 4.79534 31.2878 4.79534 27.9667ZM6.21869 27.9667C6.21869 30.4265 8.04801 32.4265 10.2967 32.4265C12.5426 32.4265 14.3722 30.4265 14.3722 27.9667C14.3722 25.5079 12.5426 23.5105 10.2967 23.5105C8.04801 23.5105 6.21869 25.5079 6.21869 27.9667ZM17.4616 27.1859H22.285C22.6782 27.1859 22.9965 27.5352 22.9965 27.9667C22.9965 28.3992 22.6782 28.747 22.285 28.747H17.4616C17.0683 28.747 16.7501 28.3992 16.7501 27.9667C16.7501 27.5352 17.0683 27.1859 17.4616 27.1859Z" fill="#FF3B4A"/>
<defs>
<linearGradient id="paint0_linear_0_174" x1="15.5553" y1="-11.9141" x2="-8.75052" y2="25.4927" gradientUnits="userSpaceOnUse">
<stop stop-color="white"/>
<stop offset="1" stop-color="white"/>
</linearGradient>
</defs>
</svg>
