<svg width="41" height="42" viewBox="0 0 41 42" fill="none" xmlns="http://www.w3.org/2000/svg">
<path fill-rule="evenodd" clip-rule="evenodd" d="M20.7112 26.6571C17.6518 26.6571 15.1618 24.1631 15.1618 21.0918C15.1618 18.0226 17.6518 15.5285 20.7112 15.5285C23.7675 15.5285 26.2551 18.0226 26.2551 21.0918C26.2551 24.1631 23.7675 26.6571 20.7112 26.6571ZM20.7112 16.9706C18.4428 16.9706 16.6 18.82 16.6 21.0918C16.6 23.3636 18.4428 25.2147 20.7112 25.2147C22.9741 25.2147 24.8168 23.3636 24.8168 21.0918C24.8168 18.82 22.9741 16.9706 20.7112 16.9706ZM18.2939 41.1888C17.9652 41.1888 17.6781 40.9627 17.5971 40.6436L16.3599 35.6809C15.3967 35.3825 14.4466 34.9767 13.5278 34.4756L9.12694 37.1254C8.84512 37.2953 8.48241 37.2485 8.24995 37.0188L4.83064 33.5882C4.59826 33.3558 4.55393 32.9932 4.72357 32.7094L7.36514 28.302C6.87451 27.39 6.48029 26.4411 6.18806 25.4637L1.21279 24.2167C0.894459 24.137 0.667419 23.8463 0.667419 23.5187V18.6747C0.667419 18.3423 0.894459 18.0534 1.21279 17.9753L6.15929 16.7368C6.46206 15.7606 6.8666 14.8075 7.36252 13.8923L4.72103 9.47749C4.55139 9.19303 4.59586 8.82897 4.82801 8.59573L8.24217 5.17279C8.47712 4.93748 8.83987 4.88895 9.12186 5.06508L13.5226 7.71128C14.4283 7.22464 15.3758 6.82565 16.3493 6.5338L17.5918 1.54389C17.6727 1.22304 17.9599 0.997192 18.2889 0.997192H23.1203C23.4491 0.997192 23.7388 1.22304 23.8172 1.54389L25.0545 6.51044C26.0255 6.81351 26.9755 7.21787 27.8838 7.70772L32.2898 5.0565C32.5665 4.89458 32.932 4.93748 33.167 5.16747L36.5811 8.59067C36.816 8.82391 36.8603 9.18682 36.6907 9.47304L34.0491 13.8923C34.5346 14.798 34.9288 15.7476 35.2211 16.7184L40.2014 17.9702C40.5224 18.0484 40.747 18.339 40.747 18.6694V23.5095C40.747 23.839 40.5224 24.1302 40.2014 24.2075L35.2211 25.4586C34.9288 26.439 34.5346 27.388 34.0517 28.2878L36.6959 32.7038C36.8655 32.9897 36.8212 33.3529 36.5863 33.5858L33.1721 37.0164C32.9373 37.2485 32.5744 37.2881 32.295 37.1254L27.8891 34.4732C26.9808 34.9702 26.0306 35.371 25.0571 35.6776L23.825 40.6406C23.7441 40.9603 23.457 41.1855 23.1255 41.1855L18.2939 41.1888ZM13.5149 32.9219C13.6375 32.9219 13.7626 32.9533 13.8748 33.0184C14.9295 33.6282 16.0336 34.0961 17.1534 34.4084C17.4013 34.4786 17.5918 34.6807 17.657 34.9314L18.8578 39.7464L22.5643 39.7435L23.7625 34.9264C23.825 34.678 24.0155 34.4786 24.2635 34.4084C25.399 34.0887 26.5005 33.6202 27.542 33.0166C27.769 32.8828 28.0457 32.8873 28.2703 33.0199L32.551 35.6001L35.1741 32.9648L32.6032 28.6758C32.4673 28.4497 32.4673 28.1694 32.5954 27.9418C33.1878 26.9141 33.642 25.8165 33.95 24.6725C34.0179 24.4212 34.2163 24.2258 34.4693 24.1631L39.3086 22.9456V19.2321L34.4693 18.0164C34.2163 17.9548 34.0179 17.7586 33.95 17.5058C33.6445 16.3727 33.1878 15.2698 32.5954 14.2336C32.4673 14.0098 32.47 13.7304 32.6032 13.5036L35.1689 9.21375L32.5482 6.5862L28.2677 9.16166C28.0457 9.29691 27.769 9.30316 27.5395 9.1676C26.4952 8.56436 25.3937 8.09668 24.261 7.7761C24.013 7.70772 23.8224 7.50998 23.7597 7.2587L22.5592 2.43929H18.8527L17.6439 7.28712C17.5816 7.53902 17.3856 7.74028 17.1352 7.80747C15.9997 8.1171 14.9008 8.5747 13.8672 9.16905C13.6427 9.30316 13.3659 9.30017 13.1389 9.16166L8.86339 6.58796L6.24276 9.21938L8.80857 13.5036C8.94432 13.7304 8.94432 14.0098 8.81394 14.2359C8.21087 15.2891 7.74105 16.3967 7.42513 17.5292C7.35465 17.7811 7.15629 17.972 6.90569 18.035L2.10568 19.2377V22.953L6.93966 24.1681C7.19288 24.2309 7.3912 24.4271 7.45905 24.679C7.76698 25.8147 8.22136 26.9164 8.8191 27.9539C8.94948 28.1812 8.94694 28.4615 8.8111 28.6856L6.24538 32.9698L8.86855 35.6024L13.1441 33.0264C13.259 32.9568 13.3868 32.9219 13.5149 32.9219Z" fill="url(#paint0_linear_0_141)"/>
<path fill-rule="evenodd" clip-rule="evenodd" d="M20.7112 26.6571C17.6518 26.6571 15.1618 24.1631 15.1618 21.0918C15.1618 18.0226 17.6518 15.5285 20.7112 15.5285C23.7675 15.5285 26.2551 18.0226 26.2551 21.0918C26.2551 24.1631 23.7675 26.6571 20.7112 26.6571ZM20.7112 16.9706C18.4428 16.9706 16.6 18.82 16.6 21.0918C16.6 23.3636 18.4428 25.2147 20.7112 25.2147C22.9741 25.2147 24.8168 23.3636 24.8168 21.0918C24.8168 18.82 22.9741 16.9706 20.7112 16.9706ZM18.2939 41.1888C17.9652 41.1888 17.6781 40.9627 17.5971 40.6436L16.3599 35.6809C15.3967 35.3825 14.4466 34.9767 13.5278 34.4756L9.12694 37.1254C8.84512 37.2953 8.48241 37.2485 8.24995 37.0188L4.83064 33.5882C4.59826 33.3558 4.55393 32.9932 4.72357 32.7094L7.36514 28.302C6.87451 27.39 6.48029 26.4411 6.18806 25.4637L1.21279 24.2167C0.894459 24.137 0.667419 23.8463 0.667419 23.5187V18.6747C0.667419 18.3423 0.894459 18.0534 1.21279 17.9753L6.15929 16.7368C6.46206 15.7606 6.8666 14.8075 7.36252 13.8923L4.72103 9.47749C4.55139 9.19303 4.59586 8.82897 4.82801 8.59573L8.24217 5.17279C8.47712 4.93748 8.83987 4.88895 9.12186 5.06508L13.5226 7.71128C14.4283 7.22464 15.3758 6.82565 16.3493 6.5338L17.5918 1.54389C17.6727 1.22304 17.9599 0.997192 18.2889 0.997192H23.1203C23.4491 0.997192 23.7388 1.22304 23.8172 1.54389L25.0545 6.51044C26.0255 6.81351 26.9755 7.21787 27.8838 7.70772L32.2898 5.0565C32.5665 4.89458 32.932 4.93748 33.167 5.16747L36.5811 8.59067C36.816 8.82391 36.8603 9.18682 36.6907 9.47304L34.0491 13.8923C34.5346 14.798 34.9288 15.7476 35.2211 16.7184L40.2014 17.9702C40.5224 18.0484 40.747 18.339 40.747 18.6694V23.5095C40.747 23.839 40.5224 24.1302 40.2014 24.2075L35.2211 25.4586C34.9288 26.439 34.5346 27.388 34.0517 28.2878L36.6959 32.7038C36.8655 32.9897 36.8212 33.3529 36.5863 33.5858L33.1721 37.0164C32.9373 37.2485 32.5744 37.2881 32.295 37.1254L27.8891 34.4732C26.9808 34.9702 26.0306 35.371 25.0571 35.6776L23.825 40.6406C23.7441 40.9603 23.457 41.1855 23.1255 41.1855L18.2939 41.1888ZM13.5149 32.9219C13.6375 32.9219 13.7626 32.9533 13.8748 33.0184C14.9295 33.6282 16.0336 34.0961 17.1534 34.4084C17.4013 34.4786 17.5918 34.6807 17.657 34.9314L18.8578 39.7464L22.5643 39.7435L23.7625 34.9264C23.825 34.678 24.0155 34.4786 24.2635 34.4084C25.399 34.0887 26.5005 33.6202 27.542 33.0166C27.769 32.8828 28.0457 32.8873 28.2703 33.0199L32.551 35.6001L35.1741 32.9648L32.6032 28.6758C32.4673 28.4497 32.4673 28.1694 32.5954 27.9418C33.1878 26.9141 33.642 25.8165 33.95 24.6725C34.0179 24.4212 34.2163 24.2258 34.4693 24.1631L39.3086 22.9456V19.2321L34.4693 18.0164C34.2163 17.9548 34.0179 17.7586 33.95 17.5058C33.6445 16.3727 33.1878 15.2698 32.5954 14.2336C32.4673 14.0098 32.47 13.7304 32.6032 13.5036L35.1689 9.21375L32.5482 6.5862L28.2677 9.16166C28.0457 9.29691 27.769 9.30316 27.5395 9.1676C26.4952 8.56436 25.3937 8.09668 24.261 7.7761C24.013 7.70772 23.8224 7.50998 23.7597 7.2587L22.5592 2.43929H18.8527L17.6439 7.28712C17.5816 7.53902 17.3856 7.74028 17.1352 7.80747C15.9997 8.1171 14.9008 8.5747 13.8672 9.16905C13.6427 9.30316 13.3659 9.30017 13.1389 9.16166L8.86339 6.58796L6.24276 9.21938L8.80857 13.5036C8.94432 13.7304 8.94432 14.0098 8.81394 14.2359C8.21087 15.2891 7.74105 16.3967 7.42513 17.5292C7.35465 17.7811 7.15629 17.972 6.90569 18.035L2.10568 19.2377V22.953L6.93966 24.1681C7.19288 24.2309 7.3912 24.4271 7.45905 24.679C7.76698 25.8147 8.22136 26.9164 8.8191 27.9539C8.94948 28.1812 8.94694 28.4615 8.8111 28.6856L6.24538 32.9698L8.86855 35.6024L13.1441 33.0264C13.259 32.9568 13.3868 32.9219 13.5149 32.9219Z" fill="#FF3B4A"/>
<defs>
<linearGradient id="paint0_linear_0_141" x1="21.1627" y1="-18.6419" x2="-19.0262" y2="20.5241" gradientUnits="userSpaceOnUse">
<stop stop-color="white"/>
<stop offset="1" stop-color="white"/>
</linearGradient>
</defs>
</svg>
