<svg width="42" height="34" viewBox="0 0 42 34" fill="none" xmlns="http://www.w3.org/2000/svg">
<path fill-rule="evenodd" clip-rule="evenodd" d="M41.0813 10.4461C41.0813 10.4142 41.0549 10.3994 41.0496 10.368C41.0418 10.299 41.0549 10.2289 41.026 10.1629L36.9067 0.466028C36.7934 0.201392 36.5303 0.026468 36.2382 0.026468H5.83962C5.54738 0.026468 5.2843 0.201392 5.17096 0.466028L1.04899 10.1629C1.02004 10.2289 1.0332 10.299 1.02268 10.368C1.02004 10.3994 0.993728 10.4142 0.993728 10.4461C0.993728 10.4603 1.00961 10.4719 1.00961 10.4882C1.02004 10.6463 1.06479 10.7972 1.17281 10.9221L20.4927 32.7548C20.5084 32.774 20.5375 32.7661 20.5532 32.7856C20.6058 32.8318 20.648 32.8738 20.7112 32.9075C20.7243 32.9132 20.7269 32.936 20.7453 32.9416C20.8401 32.9816 20.9401 33.002 21.0349 33.002C21.1322 33.002 21.2323 32.9816 21.3271 32.9416C21.3454 32.936 21.3481 32.9132 21.3613 32.9046C21.4244 32.8738 21.4665 32.8318 21.5166 32.7856C21.535 32.7661 21.564 32.774 21.5798 32.7548L40.8997 10.9221C41.0076 10.7972 41.0549 10.6463 41.0655 10.4882C41.0655 10.4719 41.0813 10.4603 41.0813 10.4461ZM25.965 1.46946L29.5183 9.72508H12.5568L16.1128 1.46946H25.965ZM29.5078 11.1672L21.0349 30.4745L12.5671 11.1672H29.5078ZM10.9827 11.1672L18.5133 28.3382L3.32054 11.1672H10.9827ZM31.0924 11.1672H38.7518L23.559 28.3353L31.0924 11.1672ZM39.2651 9.72508H31.0949L27.5415 1.46946H35.7564L39.2651 9.72508ZM6.31865 1.46946H14.5388L10.9827 9.72508H2.80983L6.31865 1.46946Z" fill="url(#paint0_linear_0_157)"/>
<path fill-rule="evenodd" clip-rule="evenodd" d="M41.0813 10.4461C41.0813 10.4142 41.0549 10.3994 41.0496 10.368C41.0418 10.299 41.0549 10.2289 41.026 10.1629L36.9067 0.466028C36.7934 0.201392 36.5303 0.026468 36.2382 0.026468H5.83962C5.54738 0.026468 5.2843 0.201392 5.17096 0.466028L1.04899 10.1629C1.02004 10.2289 1.0332 10.299 1.02268 10.368C1.02004 10.3994 0.993728 10.4142 0.993728 10.4461C0.993728 10.4603 1.00961 10.4719 1.00961 10.4882C1.02004 10.6463 1.06479 10.7972 1.17281 10.9221L20.4927 32.7548C20.5084 32.774 20.5375 32.7661 20.5532 32.7856C20.6058 32.8318 20.648 32.8738 20.7112 32.9075C20.7243 32.9132 20.7269 32.936 20.7453 32.9416C20.8401 32.9816 20.9401 33.002 21.0349 33.002C21.1322 33.002 21.2323 32.9816 21.3271 32.9416C21.3454 32.936 21.3481 32.9132 21.3613 32.9046C21.4244 32.8738 21.4665 32.8318 21.5166 32.7856C21.535 32.7661 21.564 32.774 21.5798 32.7548L40.8997 10.9221C41.0076 10.7972 41.0549 10.6463 41.0655 10.4882C41.0655 10.4719 41.0813 10.4603 41.0813 10.4461ZM25.965 1.46946L29.5183 9.72508H12.5568L16.1128 1.46946H25.965ZM29.5078 11.1672L21.0349 30.4745L12.5671 11.1672H29.5078ZM10.9827 11.1672L18.5133 28.3382L3.32054 11.1672H10.9827ZM31.0924 11.1672H38.7518L23.559 28.3353L31.0924 11.1672ZM39.2651 9.72508H31.0949L27.5415 1.46946H35.7564L39.2651 9.72508ZM6.31865 1.46946H14.5388L10.9827 9.72508H2.80983L6.31865 1.46946Z" fill="#FF3B4A"/>
<defs>
<linearGradient id="paint0_linear_0_157" x1="17" y1="-15.7273" x2="-10.7819" y2="25.7741" gradientUnits="userSpaceOnUse">
<stop stop-color="white"/>
<stop offset="1" stop-color="white"/>
</linearGradient>
</defs>
</svg>
